<svg xmlns="http://www.w3.org/2000/svg" xmlns:xlink="http://www.w3.org/1999/xlink" version="1.1" id="Layer_1" x="227.744" y="227.5" viewBox="2.40000057220459 2.299999952316284 88.73749542236328 89.09999084472656" xml:space="preserve" height="120" width="119.51171875" preserveAspectRatio="xMinYMin" enable-background="new 0 0 93.5 93.5" style="overflow: visible;"><path class="st509" d="M57.7,56.4c1.2-1.2,1.8-3.1,1.4-5c-0.5-2-2.1-3.6-4.1-4c-3.5-0.7-6.6,1.9-6.6,5.3c0,1.5,0.6,2.8,1.5,3.8   H37.4l0-12.6c-1.2,1.2-3.1,1.8-5,1.4c-2-0.5-3.6-2.1-4-4.1c-0.7-3.5,1.9-6.6,5.3-6.6c1.5,0,2.8,0.6,3.8,1.5V23.5H10.1   c-3.1,0-5.7,2.5-5.7,5.7v54.5c0,3.1,2.5,5.7,5.7,5.7h27.2h27.2c3.1,0,5.7-2.5,5.7-5.7V56.4H57.7z" style="fill: #3876ca; fill-opacity: 1;"></path><path class="st236" d="M54.7,37.5c-0.1-1.7,0.6-3.5,2.2-4.8c1.6-1.2,3.9-1.4,5.7-0.5c3.2,1.7,3.8,5.7,1.6,8.3   c-0.9,1.1-2.3,1.8-3.6,1.9l9.6,8.1l17.5-20.9c2-2.4,1.7-6-0.7-8L66.2,4.3l-8.1,9.6c-0.2-1.7-1.2-3.4-3-4.3   c-1.8-0.9-4.1-0.7-5.7,0.5c-2.8,2.2-2.8,6.3-0.2,8.4c1.1,0.9,2.5,1.4,3.9,1.2L45,29.5L54.7,37.5z" style="fill: #8C38CA; fill-opacity: 1;"></path><path class="st0" d="M70.2,52.6c-0.5,0-0.9-0.2-1.3-0.5L59.3,44c-0.6-0.5-0.9-1.4-0.6-2.1c0.2-0.8,0.9-1.3,1.7-1.4   c0.9-0.1,1.7-0.5,2.3-1.2c0.7-0.8,0.9-1.8,0.7-2.8c-0.2-1-0.8-1.9-1.8-2.4c-1.1-0.6-2.6-0.5-3.6,0.3c-1,0.7-1.5,1.8-1.4,3   c0.1,0.8-0.4,1.6-1.1,1.9c-0.7,0.4-1.6,0.3-2.2-0.2L43.8,31c-0.4-0.3-0.7-0.8-0.7-1.4c0-0.5,0.1-1.1,0.5-1.5l5.9-7.1   c-0.5-0.3-1-0.6-1.5-1c-1.7-1.4-2.7-3.6-2.6-5.8c0-2.2,1.1-4.3,2.9-5.7c2.2-1.8,5.3-2.1,7.9-0.7c1.1,0.6,2,1.3,2.6,2.3l6-7.1   C65,2.6,65.5,2.3,66,2.3c0.5,0,1.1,0.1,1.5,0.5l20.9,17.5c1.6,1.3,2.5,3.2,2.7,5.2s-0.4,4-1.8,5.6L71.8,51.9   c-0.3,0.4-0.8,0.7-1.4,0.7C70.4,52.6,70.3,52.6,70.2,52.6z M64.4,43.1l5.6,4.7l16.2-19.3c0.6-0.8,0.9-1.7,0.8-2.7s-0.5-1.9-1.3-2.5   L66.4,7.1l-6.8,8.1c-0.5,0.6-1.4,0.9-2.1,0.6c-0.8-0.2-1.3-0.9-1.4-1.7c-0.1-1.2-0.8-2.2-1.9-2.7c-1.1-0.6-2.6-0.4-3.6,0.3   c-0.9,0.7-1.3,1.6-1.4,2.7c0,1,0.4,2,1.2,2.7c0.7,0.6,1.5,0.9,2.4,0.8c0.8-0.1,1.6,0.4,1.9,1.1s0.3,1.6-0.2,2.2l-6.8,8.1l5.6,4.7   c0.5-1,1.3-2,2.2-2.7c2.3-1.7,5.4-2,7.9-0.6c2,1.1,3.4,3,3.8,5.2s-0.2,4.5-1.6,6.2C65.4,42.4,64.9,42.8,64.4,43.1z" style="fill: #000000; fill-opacity: 1;"></path><path class="st0" d="M70.3,54.4H61c0.3-1.1,0.3-2.3,0-3.5c-0.6-2.8-2.8-5-5.6-5.5c-2.2-0.5-4.5,0.1-6.3,1.5   c-1.7,1.4-2.7,3.5-2.7,5.8c0,0.6,0.1,1.2,0.2,1.8h-7.3V43.8c0-0.8-0.5-1.5-1.2-1.8c-0.7-0.3-1.6-0.1-2.2,0.4   c-0.8,0.8-2,1.2-3.2,0.9c-1.2-0.3-2.2-1.3-2.5-2.5c-0.2-1.1,0-2.1,0.7-2.9c0.7-0.8,1.6-1.3,2.6-1.3c0.9,0,1.7,0.3,2.4,1   c0.6,0.6,1.4,0.7,2.2,0.4c0.7-0.3,1.2-1,1.2-1.8V23.5c0-1.1-0.9-2-2-2H10.1c-4.2,0-7.7,3.4-7.7,7.7v54.5c0,4.2,3.4,7.7,7.7,7.7   h54.5c4.2,0,7.7-3.4,7.7-7.7V56.4C72.3,55.3,71.4,54.4,70.3,54.4z M10.1,25.5h25.2v7.3c-0.6-0.1-1.2-0.2-1.8-0.2   c-2.2,0-4.3,1-5.8,2.7s-2,4-1.5,6.3c0.6,2.8,2.8,5,5.5,5.6c1.2,0.3,2.4,0.2,3.5,0v7.3H24.8c-0.8,0-1.5,0.5-1.8,1.2   c-0.3,0.7-0.1,1.6,0.4,2.2c0.8,0.8,1.1,2,0.9,3.2c-0.3,1.2-1.3,2.2-2.6,2.5c-1.1,0.2-2.1,0-2.9-0.7c-0.8-0.7-1.3-1.6-1.3-2.6   c0-0.9,0.3-1.7,1-2.4c0.6-0.6,0.7-1.4,0.4-2.2c-0.3-0.7-1-1.2-1.8-1.2H6.5V29.2C6.5,27.1,8.1,25.5,10.1,25.5z M36.6,74.9   c-0.7,0.3-1.2,1-1.2,1.8v10.6H10.1c-2,0-3.7-1.6-3.7-3.7V58.4h7.3c-0.1,0.6-0.2,1.2-0.2,1.8c0,2.2,1,4.3,2.7,5.8   c1.7,1.4,4,2,6.3,1.5c2.8-0.6,5-2.8,5.6-5.5c0.3-1.2,0.2-2.4,0-3.5h7.3V69c0,0.8,0.5,1.5,1.2,1.8c0.7,0.3,1.6,0.1,2.2-0.4   c0.8-0.8,2-1.1,3.2-0.9c1.2,0.3,2.2,1.3,2.5,2.6c0.2,1.1,0,2.1-0.7,2.9c-0.7,0.8-1.6,1.3-2.6,1.3c-0.9,0-1.7-0.3-2.4-1   C38.2,74.7,37.3,74.6,36.6,74.9z M68.3,83.6c0,2-1.6,3.7-3.7,3.7H39.4V80c0.6,0.1,1.2,0.2,1.8,0.2c2.2,0,4.3-1,5.8-2.7   c1.4-1.7,2-4,1.5-6.3c-0.6-2.8-2.8-5-5.5-5.6c-1.2-0.3-2.4-0.2-3.5,0v-7.3H50c0.8,0,1.5-0.5,1.8-1.2c0.3-0.7,0.1-1.6-0.4-2.2   c-0.6-0.6-1-1.5-1-2.4c0-1,0.5-2,1.3-2.6c0.8-0.7,1.8-0.9,2.9-0.7c1.2,0.3,2.3,1.3,2.6,2.5c0.3,1.2-0.1,2.4-0.9,3.2   c-0.6,0.6-0.7,1.4-0.4,2.2c0.3,0.7,1,1.2,1.8,1.2h10.6V83.6z" style="fill: #000000; fill-opacity: 1;"></path></svg>